# xmcd
#
# Track frame offsets:
# 150
# 29729
# 42310
# 67842
# 94057
# 119087
# 142040
# 161582
# 189159
# 238171
# 259763
# 282740
# 299500
# 314188
#
# Disc length: 4421 seconds
#
#
# Revision: 0
# Processed by: cddbd v1.5.1PL0 Copyright (c) Steve Scherf et al.
# Submitted via: FreeRIP 2.941 
#
DISCID=e411430e
DTITLE=Vangelis - Portraits
DYEAR=1900
DGENRE=Ballad
TTITLE0=To the unknown man
TTITLE1=Italian song
TTITLE2=Pulstar
TTITLE3=La petite fille de la mer
TTITLE4=Alpha
TTITLE5=I hear you now
TTITLE6=I'll find my way home
TTITLE7=State of independence
TTITLE8=Himalaya
TTITLE9=Conquest of paradise
TTITLE10=Hymm
TTITLE11=Antarctica
TTITLE12=Sauvage et bean
TTITLE13=Chariots of fire
EXTD=
EXTT0=
EXTT1=
EXTT2=
EXTT3=
EXTT4=
EXTT5=
EXTT6=
EXTT7=
EXTT8=
EXTT9=
EXTT10=
EXTT11=
EXTT12=
EXTT13=
PLAYORDER=
